g logistic-vessel
v 0.95 1.9083188 4.2
v -0.95 1.9083188 4.2
v -0.95 1.9083188 3.3
v 0.95 1.9083188 3.3
v -1.1 1.6892035 4.2
v -1.1 1.6892035 3.3
v 1.1 1.6892035 4.2
v 1.1 1.6892035 3.3
v 0.95 1.9083188 4.2
v 1.1 1.6892035 4.2
v -1.1 1.6892035 4.2
v -0.95 1.9083188 4.2
v 1.1 1.6892035 3.3
v 0.95 1.9083188 3.3
v -0.95 1.9083188 3.3
v -1.1 1.6892035 3.3
v -1.1 1.6892035 4.2
v 1.1 1.6892035 4.2
v 1.1 1.6892035 3.3
v -1.1 1.6892035 3.3
v 0.95 1.3169171 4.3190827
v -0.95 1.3169171 4.3190827
v -0.95 1.3169172 3.5291786
v 0.95 1.3169172 3.5291786
v -0.95 0.0845998 3.5291784
v 0.95 0.0845998 3.5291784
v 0.95 1.3169172 3.5291786
v -0.95 1.3169172 3.5291786
v 0.95 0.08459972 4.002635
v -0.95 0.08459972 4.002635
v -0.95 1.3169171 4.3190827
v 0.95 1.3169171 4.3190827
v 0.95 0.08459972 4.002635
v 0.95 0.0845998 3.5291784
v -0.95 0.0845998 3.5291784
v -0.95 0.08459972 4.002635
v -0.95 1.3169172 3.5291786
v -0.95 1.3169171 4.3190827
v -0.95 0.08459972 4.002635
v -0.95 0.0845998 3.5291784
v 0.95 0.08459972 4.002635
v 0.95 1.3169171 4.3190827
v 0.95 1.3169172 3.5291786
v 0.95 0.0845998 3.5291784
v -2.0419595 0.92263806 -2.7677214
v 2.0419595 0.92263806 -2.7677214
v 2.0419595 0.92263836 -3.9682965
v -2.0419595 0.92263836 -3.9682965
v -2.1911733 1.0897721 -2.5529447
v 2.1911733 1.0897721 -2.5529447
v 2.1911733 1.0897729 -4.1904626
v -2.1911733 1.0897729 -4.1904626
v -2.0419536 2.041089 -2.767721
v -2.0419536 2.0410895 -3.5549712
v 2.0419536 2.0410895 -3.5549712
v 2.0419536 2.041089 -2.767721
v -2.1911733 1.8264035 -2.552944
v 2.1911733 1.8264035 -2.552944
v 2.1911657 1.8264041 -4.1904626
v -2.1911657 1.8264041 -4.1904626
v -2.0419595 0.92263806 -2.7677214
v -2.0419595 0.92263836 -3.9682965
v -2.1911733 1.0897729 -4.1904626
v -2.1911733 1.0897721 -2.5529447
v -2.1911733 1.8264035 -2.552944
v -2.1911657 1.8264041 -4.1904626
v -2.0419536 2.041089 -2.767721
v -2.0419536 2.0410895 -3.5549712
v 2.1911733 1.8264035 -2.552944
v 2.1911733 1.0897721 -2.5529447
v -2.1911733 1.0897721 -2.5529447
v -2.1911733 1.8264035 -2.552944
v -2.1911657 1.8264041 -4.1904626
v -2.1911733 1.0897729 -4.1904626
v 2.1911733 1.0897729 -4.1904626
v 2.1911657 1.8264041 -4.1904626
v 2.1911733 1.0897729 -4.1904626
v 2.0419595 0.92263836 -3.9682965
v 2.0419595 0.92263806 -2.7677214
v 2.1911733 1.0897721 -2.5529447
v 2.1911733 1.8264035 -2.552944
v 2.1911657 1.8264041 -4.1904626
v 2.0419536 2.041089 -2.767721
v 2.0419536 2.0410895 -3.5549712
v -0.95 0.39958885 -1.6999999
v -0.95 0.3995868 3.3
v 0.95 0.3995868 3.3
v 0.95 0.39958885 -1.6999999
v -0.95 2.4995866 3.3000004
v -0.95 2.4995887 -1.6999987
v 0.95 2.4995887 -1.6999987
v 0.95 2.4995866 3.3000004
v -0.95 0.3995868 3.3
v -0.95 2.4995866 3.3000004
v 0.95 2.4995866 3.3000004
v 0.95 0.3995868 3.3
v 0.95 0.3995868 3.3
v 0.95 2.4995866 3.3000004
v 0.95 2.4995887 -1.6999987
v 0.95 0.39958885 -1.6999999
v 0.95 0.39958885 -1.6999999
v 0.95 2.4995887 -1.6999987
v -0.95 2.4995887 -1.6999987
v -0.95 0.39958885 -1.6999999
v -0.95 0.39958885 -1.6999999
v -0.95 2.4995887 -1.6999987
v -0.95 2.4995866 3.3000004
v -0.95 0.3995868 3.3
v -1.4 0.15959993 3.0387726
v -1.4 0.15960006 2.5616596
v -1.4 1.068388 2.56166
v -1.4 1.0683876 3.3493438
v -1.4 1.068388 2.56166
v -1.4 0.15960006 2.5616596
v 1.3999999 0.15960006 2.5616596
v 1.4 1.068388 2.56166
v 1.3999999 0.15959993 3.0387726
v 1.4 1.0683876 3.3493438
v 1.4 1.068388 2.56166
v 1.3999999 0.15960006 2.5616596
v -1.4 0.15959993 3.0387726
v 1.3999999 0.15959993 3.0387726
v 1.3999999 0.15960006 2.5616596
v -1.4 0.15960006 2.5616596
v -1.4 0.15959993 3.0387726
v -1.4 1.0683876 3.3493438
v 1.4 1.0683876 3.3493438
v 1.3999999 0.15959993 3.0387726
v 1.5620947 1.9886216 -4.626676
v 1.5620948 0.3995897 -3.9682965
v 1.5620948 2.296315 -4.226676
v 1.5620947 0.65478474 -4.626676
v 1.5620948 2.2963142 -2.5843902
v 1.5620947 1.6272104 -2.1805277
v 1.5620947 0.65478474 -4.626676
v -1.5620947 0.65478474 -4.626676
v -1.5620948 0.3995897 -3.9682965
v 1.5620948 0.3995897 -3.9682965
v -1.5620947 1.9886218 -4.626676
v -1.5620948 2.296315 -4.226676
v -1.5620948 0.3995897 -3.9682965
v -1.5620947 0.65478474 -4.626676
v -1.562095 2.2963142 -2.5843902
v -1.5620947 1.6272104 -2.1805277
v 1.5620947 1.9886216 -4.626676
v 1.5620948 2.296315 -4.226676
v -1.5620948 2.296315 -4.226676
v -1.5620947 1.9886218 -4.626676
v 1.5620948 2.2963142 -2.5843902
v -1.562095 2.2963142 -2.5843902
v -1.5620947 1.6272104 -2.1805277
v -1.562095 2.2963142 -2.5843902
v 1.5620948 2.2963142 -2.5843902
v 1.5620947 1.6272104 -2.1805277
v 1.7018716 0.7025265 -1.900522
v 1.6284622 0.7760853 -1.7322853
v 1.6284622 1.5947694 -1.8802421
v 1.7018716 1.6504965 -2.0687597
v 1.7018716 1.6504966 -2.9772046
v 1.7018716 0.7025266 -2.977205
v -1.7018716 0.7025265 -1.900522
v -1.6284622 0.7760853 -1.7322853
v 1.6284622 0.7760853 -1.7322853
v 1.7018716 0.7025265 -1.900522
v -1.7018716 0.7025266 -2.977205
v 1.7018716 0.7025266 -2.977205
v 1.6284622 1.5947694 -1.8802421
v -1.6284622 1.5947694 -1.8802421
v -1.7018716 1.6504965 -2.0687597
v 1.7018716 1.6504965 -2.0687597
v -1.7018716 1.6504966 -2.9772046
v 1.7018716 1.6504966 -2.9772046
v -1.6284622 1.5947694 -1.8802421
v -1.6284622 0.7760853 -1.7322853
v -1.7018716 0.7025265 -1.900522
v -1.7018716 1.6504965 -2.0687597
v -1.7018716 1.6504966 -2.9772046
v -1.7018716 0.7025266 -2.977205
v -1.6284622 0.7760853 -1.7322853
v -1.6284622 1.5947694 -1.8802421
v 1.6284622 1.5947694 -1.8802421
v 1.6284622 0.7760853 -1.7322853
v -1.1635957 1.1281767E-06 -3.7637486
v -1.1635945 0.39958948 -3.7637486
v -1.1636533 0.39958802 0.83667374
v -1.1635957 -1.7445839E-07 0.83667356
v 1.1635947 1.1281767E-06 -3.7637486
v -1.1635957 1.1281767E-06 -3.7637486
v -1.1635957 -1.7445839E-07 0.83667356
v 1.1635947 -1.7445839E-07 0.83667356
v 1.1635944 0.39958802 0.83667374
v 1.1635947 -1.7445839E-07 0.83667356
v -1.1635957 -1.7445839E-07 0.83667356
v -1.1636533 0.39958802 0.83667374
v 1.1635944 0.39958802 0.83667374
v 1.1635945 0.39958948 -3.7637486
v 1.1635947 1.1281767E-06 -3.7637486
v 1.1635947 -1.7445839E-07 0.83667356
v 1.1635945 0.39958948 -3.7637486
v -1.1635945 0.39958948 -3.7637486
v -1.1635957 1.1281767E-06 -3.7637486
v 1.1635947 1.1281767E-06 -3.7637486
v 1.1635945 0.39958948 -3.7637486
v 1.1635944 0.39958802 0.83667374
v -1.1636533 0.39958802 0.83667374
v -1.1635945 0.39958948 -3.7637486
v -1.7858261 0.48929694 -3.9682965
v -1.4858261 0.18895519 -3.9682965
v 1.4858261 0.18895519 -3.9682965
v 1.7858261 0.48929694 -3.9682965
v -1.7858261 0.9226386 -3.968296
v 1.7858261 0.9226386 -3.968296
v -1.7858261 0.4892965 -2.9772046
v -1.7858261 0.48929694 -3.9682965
v -1.7858261 0.9226386 -3.968296
v -1.7858261 0.9226383 -2.9772043
v -1.4858261 0.18895477 -2.9772046
v -1.4858261 0.18895519 -3.9682965
v 1.4858261 0.18895519 -3.9682965
v 1.4858261 0.18895477 -2.9772046
v 1.7858261 0.48929694 -3.9682965
v 1.7858261 0.4892965 -2.9772046
v 1.7858261 0.9226386 -3.968296
v 1.7858261 0.9226383 -2.9772043
v -1.7858261 0.4892965 -2.9772046
v 1.7858261 0.4892965 -2.9772046
v 1.4858261 0.18895477 -2.9772046
v -1.4858261 0.18895477 -2.9772046
v 1.7858261 0.9226383 -2.9772043
v -1.7858261 0.9226383 -2.9772043
v 0.5157628 3.1055903 -1.9819577
v -0.5157628 3.1055903 -1.9819577
v -0.51576275 3.4205544 -1.9819576
v 0.5157628 3.4205544 -1.9819576
v -0.5157628 2.8188126 -2.58439
v -0.51576275 3.4205544 -1.9819576
v -0.5157628 3.1055903 -1.9819577
v -0.51576275 3.420555 -3.1075048
v -0.51576287 2.697911 -3.5881424
v -0.5157628 2.296314 -2.5843904
v -0.5157628 1.9917635 -4.5304103
v -0.51576287 2.6979108 -4.1755686
v -0.51576275 3.4205544 -1.9819576
v -0.51576275 3.420555 -3.1075048
v 0.5157628 3.420555 -3.1075048
v 0.5157628 3.4205544 -1.9819576
v -0.51576287 2.697911 -3.5881424
v 0.5157628 2.697911 -3.5881424
v -0.51576287 2.6979108 -4.1755686
v 0.5157628 2.6979108 -4.1755686
v 0.5157628 1.9917635 -4.5304103
v -0.5157628 1.9917635 -4.5304103
v 0.5157628 3.1055903 -1.9819577
v 0.5157628 2.8188126 -2.58439
v -0.5157628 2.8188126 -2.58439
v -0.5157628 3.1055903 -1.9819577
v -0.5157628 2.296314 -2.5843904
v 0.5157628 2.296314 -2.5843904
v 0.5157628 2.8188126 -2.58439
v 0.5157628 3.1055903 -1.9819577
v 0.5157628 3.4205544 -1.9819576
v 0.5157628 3.420555 -3.1075048
v 0.5157628 2.697911 -3.5881424
v 0.5157628 2.296314 -2.5843904
v 0.5157628 1.9917635 -4.5304103
v 0.5157628 2.6979108 -4.1755686
v 1.4000001 1.2710775 5.25
v 1.4000001 1.6892016 5.250018
v 1.4 1.0683866 4.806161
v 1.4 1.0683881 1.0606698
v 1.3999996 1.6892053 -2.9772046
v 1.4000001 0.1889535 0.15462548
v 1.4000002 0.18895477 -2.9772046
v 0.9500001 1.2710775 5.250018
v 0.95 1.6892016 5.250018
v 1.4000001 1.6892016 5.250018
v 1.4000001 1.2710775 5.25
v 1.4 1.0683866 4.806161
v 0.95 1.0683866 4.8063197
v 1.4 1.0683881 1.0606698
v 0.9499999 1.0683881 1.0606698
v 1.4000001 0.1889535 0.15462548
v -0.9499999 1.0683881 1.0606698
v -1.4000001 0.1889535 0.15462548
v -1.4 1.0683881 1.0606698
v -0.95 1.0683866 4.8063197
v -1.4 1.0683866 4.806161
v -0.9500001 1.2710775 5.250018
v -1.4000001 1.2710775 5.25
v -1.4000001 1.6892016 5.250018
v -0.95 1.6892016 5.250018
v 1.4000001 0.1889535 0.15462548
v 1.4000002 0.18895477 -2.9772046
v -1.4000002 0.18895477 -2.9772046
v -1.4000001 0.1889535 0.15462548
v -0.9499999 1.6892025 1.060669
v 1.3999996 1.6892053 -2.9772046
v 0.9499999 1.6892025 1.060669
v 1.4000001 1.6892016 5.250018
v 0.95 1.6892016 5.250018
v -1.3999996 1.6892053 -2.9772046
v -1.4000001 1.6892016 5.250018
v -0.95 1.6892016 5.250018
v -1.4000001 1.2710775 5.25
v -1.4 1.0683866 4.806161
v -1.4000001 1.6892016 5.250018
v -1.4 1.0683881 1.0606698
v -1.3999996 1.6892053 -2.9772046
v -1.4000001 0.1889535 0.15462548
v -1.4000002 0.18895477 -2.9772046
v 0.9500001 1.2710775 5.250018
v 0.9499999 1.6892025 1.060669
v 0.95 1.6892016 5.250018
v 0.95 1.0683866 4.8063197
v 0.9499999 1.0683881 1.0606698
v -0.95 1.6892016 5.250018
v -0.9499999 1.6892025 1.060669
v -0.9500001 1.2710775 5.250018
v -0.9499999 1.0683881 1.0606698
v -0.95 1.0683866 4.8063197
v 1.5620947 0.65478474 -4.626676
v 1.5620947 1.9886216 -4.626676
v -1.5620947 1.9886218 -4.626676
v -1.5620947 0.65478474 -4.626676
v -0.85000044 1.3441908 -3.5299087
v -0.1607196 1.344192 -5.42457
v -0.3626052 0.8567965 -5.424571
v -0.3626052 1.8315872 -5.42457
v -0.85000044 1.3441908 -3.5299087
v -0.3626052 0.8567965 -5.424571
v -0.85000026 0.6549106 -5.424571
v -1.3373953 0.8567964 -5.42457
v -0.85000044 1.3441908 -3.5299087
v -1.3373953 0.8567964 -5.42457
v -1.539281 1.3441919 -5.42457
v -1.3373952 1.8315872 -5.42457
v -0.85000044 1.3441908 -3.5299087
v -1.3373952 1.8315872 -5.42457
v -0.85000026 2.0334725 -5.424569
v -0.3626052 1.8315872 -5.42457
v -0.3626052 0.8567965 -5.424571
v -0.1607196 1.344192 -5.42457
v -0.85000026 0.6549106 -5.424571
v -0.85000026 2.0334725 -5.424569
v -0.3626052 1.8315872 -5.42457
v -0.85000026 2.0334725 -5.424569
v -1.3373952 1.8315872 -5.42457
v -1.539281 1.3441919 -5.42457
v -0.85000026 0.6549106 -5.424571
v -1.3373953 0.8567964 -5.42457
v 0.84999996 1.3441908 -3.5299087
v 0.36260483 0.8567965 -5.424571
v 0.16071922 1.344192 -5.42457
v 0.36260483 1.8315872 -5.42457
v 0.84999996 1.3441908 -3.5299087
v 0.84999985 0.6549106 -5.424571
v 0.36260483 0.8567965 -5.424571
v 1.337395 0.8567964 -5.42457
v 0.84999996 1.3441908 -3.5299087
v 1.5392805 1.3441919 -5.42457
v 1.337395 0.8567964 -5.42457
v 1.3373947 1.8315872 -5.42457
v 0.84999996 1.3441908 -3.5299087
v 0.84999985 2.0334725 -5.424569
v 1.3373947 1.8315872 -5.42457
v 0.36260483 1.8315872 -5.42457
v 0.36260483 0.8567965 -5.424571
v 0.84999985 0.6549106 -5.424571
v 0.16071922 1.344192 -5.42457
v 0.84999985 2.0334725 -5.424569
v 0.36260483 1.8315872 -5.42457
v 0.84999985 2.0334725 -5.424569
v 1.5392805 1.3441919 -5.42457
v 1.3373947 1.8315872 -5.42457
v 0.84999985 0.6549106 -5.424571
v 1.337395 0.8567964 -5.42457
vt 0.71642226 0.14035316
vt 0.5996285 0.14035316
vt 0.5996285 0.0850298
vt 0.71642226 0.0850298
vt 0.5861594 0.14035316
vt 0.5861594 0.0850298
vt 0.72989124 0.14035316
vt 0.72989124 0.0850298
vt 0.27182546 0.24035963
vt 0.2810463 0.25382885
vt 0.14581122 0.25382897
vt 0.1550317 0.24035963
vt 0.62160397 0.45368052
vt 0.6081346 0.44446003
vt 0.6081347 0.32766628
vt 0.6216039 0.31844544
vt 0.22645552 0.5589251
vt 0.22645552 0.51954603
vt 0.21034567 0.51954603
vt 0.21034567 0.5589251
vt 0.13171047 0.3884888
vt 0.0078125 0.3884888
vt 0.0078125 0.33697957
vt 0.13171047 0.33697957
vt 0.13171047 0.5169019
vt 0.0078125 0.5169019
vt 0.0078125 0.59726095
vt 0.13171047 0.59726095
vt 0.13171041 0.47206932
vt 0.0078125 0.47206932
vt 0.0078125 0.39171058
vt 0.13171041 0.39171058
vt 0.13171041 0.47495437
vt 0.13171041 0.5140568
vt 0.0078125 0.5140568
vt 0.0078125 0.47495437
vt 0.13594136 0.5169019
vt 0.18745077 0.5169019
vt 0.17504361 0.5972606
vt 0.13594136 0.5972606
vt 0.17504361 0.5972606
vt 0.18745077 0.5169019
vt 0.13594136 0.5169019
vt 0.13594136 0.5972606
vt 0.22444287 0.72498536
vt 0.49273562 0.72498536
vt 0.4927367 0.80385554
vt 0.22444403 0.80385554
vt 0.21463984 0.7071074
vt 0.5025378 0.7071074
vt 0.5025051 0.8221172
vt 0.2146796 0.8221172
vt 0.49277407 0.97223747
vt 0.49277407 0.92051923
vt 0.22448176 0.92051923
vt 0.22448176 0.97223747
vt 0.5025771 0.9921875
vt 0.21467885 0.9921875
vt 0.21467915 0.87645257
vt 0.50257677 0.87645257
vt 0.7378859 0.49993628
vt 0.7378859 0.57880825
vt 0.75260496 0.5934035
vt 0.75260496 0.48582667
vt 0.80099785 0.48582667
vt 0.800998 0.5934035
vt 0.81817406 0.49993628
vt 0.8181738 0.551655
vt 0.5025771 0.6523011
vt 0.5025771 0.7006941
vt 0.21467885 0.7006941
vt 0.21467885 0.6523011
vt 0.2146796 0.87051034
vt 0.21467915 0.8221172
vt 0.5025775 0.8221172
vt 0.5025771 0.87051034
vt 0.75260496 0.5934035
vt 0.7378859 0.57880825
vt 0.7378859 0.49993628
vt 0.75260496 0.48582667
vt 0.80099785 0.48582667
vt 0.800998 0.5934035
vt 0.81817406 0.49993628
vt 0.8181738 0.551655
vt 0.42982394 0.38876066
vt 0.14102359 0.38876066
vt 0.14102359 0.5069063
vt 0.42982394 0.5069063
vt 0.14102358 0.38876066
vt 0.42982394 0.38876066
vt 0.42982394 0.5069063
vt 0.14102358 0.5069063
vt 0.5543712 0.38876006
vt 0.43622524 0.38876006
vt 0.43622524 0.5069063
vt 0.5543712 0.5069063
vt 0.14102359 0.26452968
vt 0.14102359 0.38267535
vt 0.42982394 0.38267535
vt 0.42982394 0.26452968
vt 0.5543712 0.38876006
vt 0.43622524 0.38876006
vt 0.43622524 0.5069063
vt 0.5543712 0.5069063
vt 0.42982394 0.26452968
vt 0.42982394 0.38267535
vt 0.14102358 0.38267535
vt 0.14102358 0.26452968
vt 0.81338364 0.67410684
vt 0.81338364 0.7052944
vt 0.87278825 0.7052944
vt 0.87278825 0.6538056
vt 0.8001016 0.6585702
vt 0.7840623 0.6585702
vt 0.7840623 0.7079874
vt 0.8001016 0.7079874
vt 0.81338364 0.67410684
vt 0.87278825 0.6538056
vt 0.87278825 0.7052944
vt 0.81338364 0.7052944
vt 0.84170276 0.8981576
vt 0.84170276 0.7151301
vt 0.8728902 0.7151301
vt 0.8728902 0.8981576
vt 0.7746571 0.8981576
vt 0.8374348 0.8981576
vt 0.8374348 0.7151303
vt 0.7746571 0.7151303
vt 0.66621953 0.56929564
vt 0.6257317 0.47156754
vt 0.6416233 0.58822036
vt 0.6662187 0.48726168
vt 0.5406199 0.5882207
vt 0.5157822 0.5470694
vt 0.19995666 0.9487618
vt 0.0078125 0.9487618
vt 0.0078125 0.9921875
vt 0.19995666 0.9921875
vt 0.66621953 0.56929564
vt 0.6416233 0.58822036
vt 0.6257317 0.47156754
vt 0.6662187 0.48726168
vt 0.5406199 0.5882207
vt 0.5157822 0.5470694
vt 0.19995812 0.78982043
vt 0.19995812 0.7587836
vt 0.0078125 0.7587836
vt 0.0078125 0.78982043
vt 0.19995812 0.6577792
vt 0.0078125 0.6577792
vt 0.0078125 0.6054152
vt 0.0078125 0.65348184
vt 0.19995797 0.65348184
vt 0.19995797 0.60541546
vt 0.49976712 0.30934814
vt 0.49500206 0.29787615
vt 0.44355804 0.30708936
vt 0.4402015 0.31983712
vt 0.44012538 0.37690568
vt 0.4996766 0.3769853
vt 0.51557547 0.9254569
vt 0.520125 0.9140767
vt 0.7219841 0.9140767
vt 0.7265337 0.9254569
vt 0.51557547 0.9921875
vt 0.7265337 0.9921875
vt 0.72198385 0.85470045
vt 0.520125 0.85470045
vt 0.5155751 0.8425168
vt 0.7265335 0.8425168
vt 0.5155751 0.78621304
vt 0.7265335 0.78621304
vt 0.44355804 0.30708936
vt 0.49500206 0.29787615
vt 0.49976712 0.30934814
vt 0.4402015 0.31983712
vt 0.44012538 0.37690568
vt 0.4996766 0.3769853
vt 0.520125 0.85899806
vt 0.520125 0.9105605
vt 0.7219841 0.9105605
vt 0.7219841 0.85899806
vt 0.6616055 0.4430032
vt 0.66160536 0.46894583
vt 0.9602807 0.46894583
vt 0.9602807 0.44300315
vt 0.9602807 0.43906364
vt 0.9602807 0.28797445
vt 0.66160554 0.2879745
vt 0.6616055 0.4390637
vt 0.99077576 0.28797087
vt 0.9648331 0.28797087
vt 0.9648331 0.43906006
vt 0.99077576 0.43906364
vt 0.96028066 0.46894583
vt 0.6616054 0.46894583
vt 0.6616054 0.44300315
vt 0.96028054 0.4430032
vt 0.63111055 0.2879745
vt 0.6311105 0.43906346
vt 0.65705323 0.4390637
vt 0.6570532 0.2879745
vt 0.9602808 0.4390637
vt 0.66160554 0.43906364
vt 0.66160554 0.28797087
vt 0.9602807 0.2879745
vt 0.47100392 0.54841727
vt 0.45209056 0.56735206
vt 0.2647464 0.56735206
vt 0.2458331 0.54841727
vt 0.47100392 0.5210978
vt 0.2458331 0.5210978
vt 0.478853 0.63552463
vt 0.478853 0.5730424
vt 0.5061725 0.5730424
vt 0.5061725 0.63552463
vt 0.4520906 0.63552463
vt 0.4520906 0.5730423
vt 0.26474622 0.5730424
vt 0.26474622 0.63552463
vt 0.23798373 0.5730425
vt 0.23798373 0.6355245
vt 0.21066418 0.5730425
vt 0.21066418 0.6355245
vt 0.2458331 0.54841727
vt 0.47100392 0.54841727
vt 0.45209056 0.56735206
vt 0.2647464 0.56735206
vt 0.47100392 0.5210978
vt 0.2458331 0.5210978
vt 0.993305 0.90941334
vt 0.92619073 0.90941334
vt 0.92619073 0.8889209
vt 0.9933048 0.8889209
vt 0.5545822 0.28668937
vt 0.5153855 0.32584056
vt 0.5153855 0.30534825
vt 0.5886174 0.32584056
vt 0.61988944 0.278823
vt 0.5545822 0.25269374
vt 0.68119633 0.23293748
vt 0.658109 0.27882305
vt 0.92619395 0.8857709
vt 0.9261892 0.81254244
vt 0.993305 0.81253946
vt 0.993305 0.88575625
vt 0.9261904 0.75608313
vt 0.993305 0.75608397
vt 0.9261904 0.7178714
vt 0.993305 0.71787226
vt 0.993305 0.66651654
vt 0.9261904 0.66650915
vt 0.993305 0.991619
vt 0.993305 0.94820833
vt 0.92619073 0.94820833
vt 0.92619073 0.991619
vt 0.92619073 0.91421294
vt 0.993305 0.91421294
vt 0.5545822 0.28668937
vt 0.5153855 0.30534825
vt 0.5153855 0.32584056
vt 0.5886174 0.32584056
vt 0.61988944 0.278823
vt 0.5545822 0.25269374
vt 0.68119633 0.23293748
vt 0.6581095 0.27882305
vt 0.479518 0.21324094
vt 0.47951683 0.18724506
vt 0.5071123 0.22584273
vt 0.73997885 0.22584295
vt 0.99102396 0.18724534
vt 0.79631096 0.28051963
vt 0.9910243 0.2805197
vt 0.7657991 0.65048254
vt 0.7658003 0.62448716
vt 0.73782295 0.6244861
vt 0.73782176 0.65048254
vt 0.73782176 0.68081915
vt 0.7657992 0.6808094
vt 0.73782045 0.91368496
vt 0.7657971 0.91368496
vt 0.7378189 0.9921874
vt 0.8839223 0.91368496
vt 0.9119002 0.9921875
vt 0.91189915 0.91368496
vt 0.88392085 0.6808094
vt 0.9118982 0.68081915
vt 0.8839212 0.6504822
vt 0.9118988 0.65048254
vt 0.9118981 0.6244861
vt 0.8839206 0.62448716
vt 0.7224421 0.60183525
vt 0.52772874 0.60183525
vt 0.5277284 0.77591825
vt 0.72244185 0.77591825
vt 0.73997957 0.14860176
vt 0.9910231 0.0024963268
vt 0.73997885 0.030473836
vt 0.47951683 0.0024962672
vt 0.47951683 0.030473836
vt 0.99102396 0.17657942
vt 0.47951803 0.17657937
vt 0.47951803 0.14860176
vt 0.479518 0.21323916
vt 0.50711274 0.2258412
vt 0.4795173 0.18724374
vt 0.73997957 0.22584228
vt 0.99102396 0.18724534
vt 0.79631084 0.28051987
vt 0.99102396 0.28051993
vt 0.4795173 0.06597916
vt 0.73997897 0.03998331
vt 0.47951683 0.039983086
vt 0.50710315 0.07858097
vt 0.7399793 0.078580745
vt 0.4795173 0.039983533
vt 0.73997897 0.039983533
vt 0.4795173 0.06597916
vt 0.7399793 0.078580745
vt 0.50710315 0.07858097
vt 0.0078125 0.87606364
vt 0.0078125 0.7941627
vt 0.19995812 0.7941628
vt 0.19995812 0.87606364
vt 0.35933658 0.71441853
vt 0.3593368 0.9715788
vt 0.39772186 0.9715788
vt 0.32095268 0.971579
vt 0.35933658 0.71441853
vt 0.39772186 0.9715788
vt 0.3593368 0.9715788
vt 0.32095268 0.971579
vt 0.35933658 0.71441853
vt 0.32095268 0.971579
vt 0.3593368 0.9715788
vt 0.39772186 0.9715788
vt 0.35933658 0.71441853
vt 0.39772186 0.9715788
vt 0.3593368 0.9715788
vt 0.32095268 0.971579
vt 0.48787928 0.12464284
vt 0.52519596 0.14010024
vt 0.47242248 0.08732626
vt 0.57796973 0.087326206
vt 0.56251276 0.12464284
vt 0.57796973 0.087326206
vt 0.56251276 0.12464284
vt 0.52519596 0.14010024
vt 0.47242248 0.08732626
vt 0.48787928 0.12464284
vt 0.35933658 0.71441853
vt 0.39772186 0.9715788
vt 0.3593368 0.9715788
vt 0.32095268 0.971579
vt 0.35933658 0.71441853
vt 0.3593368 0.9715788
vt 0.39772186 0.9715788
vt 0.32095268 0.971579
vt 0.35933658 0.71441853
vt 0.3593368 0.9715788
vt 0.32095268 0.971579
vt 0.39772186 0.9715788
vt 0.35933658 0.71441853
vt 0.3593368 0.9715788
vt 0.39772186 0.9715788
vt 0.32095268 0.971579
vt 0.48787928 0.12464284
vt 0.47242248 0.08732626
vt 0.52519596 0.14010024
vt 0.57796973 0.087326206
vt 0.56251276 0.12464284
vt 0.57796973 0.087326206
vt 0.52519596 0.14010024
vt 0.56251276 0.12464284
vt 0.47242248 0.08732626
vt 0.48787928 0.12464284
vn 0.46642977 0.8845583 0
vn -0.4664298 0.8845582 0
vn -0.4664298 0.8845582 0
vn 0.46642977 0.8845583 0
vn -0.8845583 -0.46642977 0
vn -0.8845583 -0.46642977 0
vn 0.8845582 -0.46642974 0
vn 0.8845582 -0.46642974 0
vn -0 0 1
vn -0 0 1
vn -0 0 1
vn -0 0 1
vn -0 0 -1
vn -0 0 -1
vn -0 0 -1
vn -0 0 -1
vn -0.8845583 -0.46642977 0
vn 0.8845582 -0.46642974 0
vn 0.8845582 -0.46642974 0
vn -0.8845583 -0.46642977 0
vn -0 1 1.9317265E-07
vn -0 1 1.9317265E-07
vn -0 1 1.9317265E-07
vn -0 1 1.9317265E-07
vn -0 2.476438E-07 -1
vn -0 2.476438E-07 -1
vn -0 2.476438E-07 -1
vn -0 2.476438E-07 -1
vn -0 -0.24872118 0.9685752
vn -0 -0.24872118 0.9685752
vn -0 -0.24872118 0.9685752
vn -0 -0.24872118 0.9685752
vn -0 -1 -1.6114238E-07
vn -0 -1 -1.6114238E-07
vn -0 -1 -1.6114238E-07
vn -0 -1 -1.6114238E-07
vn -1 0 0
vn -1 0 0
vn -1 0 0
vn -1 0 0
vn 1 0 0
vn 1 0 0
vn 1 0 0
vn 1 0 0
vn -0 -0.92945516 0.36893496
vn -0 -0.92945516 0.36893496
vn -0 -0.93314046 -0.35951185
vn -0 -0.93314046 -0.35951185
vn -0 -0.7892001 0.61413604
vn -0 -0.7892001 0.61413604
vn -0 -0.7991187 -0.6011733
vn -0 -0.7991187 -0.6011733
vn -0 0.9025659 0.43055174
vn -0 0.9849696 -0.17272785
vn -0 0.9849696 -0.17272785
vn -0 0.9025659 0.43055174
vn -0 0.70725703 0.7069565
vn -0 0.70725703 0.7069565
vn -0 0.9473988 -0.32005572
vn -0 0.9473988 -0.32005572
vn -0.7459673 -0.6659824 -2.507632E-07
vn -0.7459673 -0.6659825 -2.5076324E-07
vn -0.9716158 -0.23656492 -1.7023002E-06
vn -0.9707685 -0.24001782 -1.6928365E-06
vn -0.9767419 0.2144187 -2.3959365E-06
vn -0.9931346 0.11697681 -2.35789E-06
vn -0.8211381 0.57072955 -2.3166676E-06
vn -0.8211381 0.5707296 -2.316668E-06
vn -0 -8.285712E-07 1
vn -0 -8.285712E-07 1
vn -0 -8.285712E-07 1
vn -0 -8.285712E-07 1
vn -0 0 -1
vn -0 0 -1
vn -0 0 -1
vn -0 0 -1
vn 0.9716157 -0.23656493 -1.7023001E-06
vn 0.74596727 -0.6659826 -2.507632E-07
vn 0.7459673 -0.6659826 -2.507632E-07
vn 0.9707685 -0.24001785 -1.6928365E-06
vn 0.9767419 0.2144187 -2.3959365E-06
vn 0.9931346 0.11697681 -2.35789E-06
vn 0.8211381 0.57072955 -2.3166676E-06
vn 0.8211381 0.5707296 -2.316668E-06
vn -0 -1 -4.1198732E-07
vn -0 -1 -4.1198732E-07
vn -0 -1 -4.1198732E-07
vn -0 -1 -4.1198732E-07
vn -0 1 4.2724614E-07
vn -0 1 4.2724614E-07
vn -0 1 4.2724614E-07
vn -0 1 4.2724614E-07
vn -0 -2.9064358E-07 1
vn -0 -2.9064358E-07 1
vn -0 -2.9064358E-07 1
vn -0 -2.9064358E-07 1
vn 1 0 0
vn 1 0 0
vn 1 0 0
vn 1 0 0
vn -0 5.8128717E-07 -1
vn -0 5.8128717E-07 -1
vn -0 5.8128717E-07 -1
vn -0 5.8128717E-07 -1
vn -1 0 0
vn -1 0 0
vn -1 0 0
vn -1 0 0
vn -1 0 0
vn -1 0 0
vn -1 0 0
vn -1 0 0
vn -0 6.7161056E-07 -1
vn -0 6.7161056E-07 -1
vn -0 6.716106E-07 -1
vn -0 6.7161056E-07 -1
vn 1 -1.6790266E-07 0
vn 1 -1.6790264E-07 0
vn 1 -1.6790266E-07 0
vn 1 -1.6790266E-07 0
vn -0 -1 -2.798381E-07
vn -0 -1 -2.798381E-07
vn -0 -1 -2.798381E-07
vn -0 -1 -2.798381E-07
vn -0 -0.32338026 0.94626904
vn -0 -0.32338026 0.94626904
vn -0 -0.32338026 0.94626904
vn -0 -0.32338026 0.94626915
vn 1 0 -3.2525972E-07
vn 1 0 -1.0057387E-07
vn 1 0 -1.459117E-07
vn 1 0 -2.3176271E-07
vn 1 0 0
vn 1 -1.2480388E-07 1.7105106E-07
vn -0 -0.93240666 -0.3614108
vn -0 -0.93240666 -0.3614108
vn -0 -0.93240666 -0.3614108
vn -0 -0.93240666 -0.3614108
vn -1 0 -3.2525975E-07
vn -1 0 -1.9956094E-07
vn -1 0 -1.1607753E-07
vn -1 0 -2.317627E-07
vn -1 -1.6440454E-07 1.15067245E-07
vn -1 -2.8602904E-07 2.817607E-07
vn -0 0.79262304 -0.60971195
vn -0 0.94673735 -0.32200667
vn -0 0.94673735 -0.32200667
vn -0 0.79262304 -0.60971195
vn -0 1 3.7164764E-07
vn -0 1 3.7164764E-07
vn -0 0.51675206 0.856135
vn -0 0.51675206 0.85613513
vn -0 0.51675206 0.856135
vn -0 0.5167521 0.856135
vn 0.9813851 0.03383538 0.18904635
vn 0.92382735 0.06744324 0.37682146
vn 0.92382735 0.06744324 0.37682146
vn 0.98807997 0.02712132 0.1515333
vn 1 0 0
vn 1 0 0
vn -0 -0.9843225 0.17637785
vn -0 -0.91624683 0.4006143
vn -0 -0.91624683 0.4006143
vn -0 -0.9843225 0.17637785
vn -0 -1 0
vn -0 -1 0
vn -0 0.958978 0.2834806
vn -0 0.958978 0.2834806
vn -0 0.9921806 0.12481125
vn -0 0.9921806 0.12481125
vn -0 1 1.6796601E-07
vn -0 1 1.6796601E-07
vn -0.92382735 0.067443244 0.37682155
vn -0.92382735 0.067443244 0.37682155
vn -0.9813851 0.033835385 0.1890464
vn -0.98807997 0.027121322 0.1515333
vn -1 0 0
vn -1 0 0
vn -0 0.17784421 0.9840587
vn -0 0.17784421 0.9840587
vn -0 0.17784421 0.9840587
vn -0 0.17784421 0.9840587
vn -1 -7.0644615E-05 -6.3849066E-06
vn -1 -7.0644615E-05 -6.3849066E-06
vn -1 -7.064461E-05 -6.3849066E-06
vn -1 -7.064461E-05 -6.3849066E-06
vn -0 -1 -2.8315554E-07
vn -0 -1 -2.8315554E-07
vn -0 -1 -2.8315554E-07
vn -0 -1 -2.8315554E-07
vn -0 -3.8186283E-07 1
vn -0 -3.8186283E-07 1
vn -0 -3.8186283E-07 1
vn -0 -3.8186283E-07 1
vn 1 7.637255E-07 0
vn 1 7.637255E-07 0
vn 1 7.637255E-07 0
vn 1 7.637255E-07 0
vn -0 0 -1
vn -0 0 -1
vn -0 0 -1
vn -0 0 -1
vn -0 1 3.2339028E-07
vn -0 1 3.2339028E-07
vn -0 1 3.2339028E-07
vn -0 1 3.2339028E-07
vn -0 4.6937882E-07 -1
vn -0 0 -1
vn -0 0 -1
vn -0 4.6937882E-07 -1
vn -0 7.042383E-07 -1
vn -0 7.042383E-07 -1
vn -0.9239884 -0.38242045 -1.6878133E-07
vn -0.9239884 -0.3824204 -1.6878131E-07
vn -1 0 0
vn -1 0 0
vn -0.38294637 -0.92377055 -3.979843E-07
vn -0.3829464 -0.92377055 -3.9798425E-07
vn 0.38294637 -0.92377055 -3.960212E-07
vn 0.38294634 -0.92377055 -3.9602122E-07
vn 0.9239884 -0.38242045 -1.6681877E-07
vn 0.9239884 -0.38242054 -1.6681878E-07
vn 1 0 0
vn 1 0 0
vn -0 -4.6937862E-07 1
vn -0 -4.6937862E-07 1
vn -0 0 1
vn -0 0 1
vn -0 -7.0423795E-07 1
vn -0 -7.0423795E-07 1
vn -0 -4.8446145E-07 1
vn -0 -4.8446145E-07 1
vn -0 -4.844615E-07 1
vn -0 -4.8446145E-07 1
vn -1 0 0
vn -1 0 0
vn -1 1.2111536E-07 0
vn -1 0 0
vn -1 0 0
vn -1 0 0
vn -1 0 0
vn -1 0 0
vn -0 1 5.422709E-07
vn -0 0.8814201 -0.47233316
vn -0 0.8814201 -0.47233316
vn -0 1 5.422709E-07
vn -0 0.8814198 -0.47233358
vn -0 0.8814198 -0.47233364
vn -0 0.8511762 -0.52488005
vn -0 0.8511762 -0.52488005
vn -0 0.44900236 -0.89353055
vn -0 0.44900236 -0.89353055
vn -0 -0.90291554 0.42981806
vn -0 -0.5339396 0.8455227
vn -0 -0.5339396 0.8455227
vn -0 -0.90291554 0.42981806
vn -0 -1.1681404E-06 1
vn -0 -1.1681404E-06 1
vn 1 0 0
vn 1 0 0
vn 1 0 0
vn 1 0 0
vn 1 0 0
vn 1 0 0
vn 1 0 0
vn 1 0 0
vn 1 0 -3.4379812E-07
vn 1 -1.13496256E-07 -1.4105622E-07
vn 1 -1.9852234E-07 0
vn 1 1.3616369E-07 0
vn 1 3.443642E-07 0
vn 1 2.527654E-07 0
vn 1 4.0683312E-07 0
vn 6.0653565E-05 -0.5406212 0.84126616
vn 2.034505E-05 -2.1896067E-05 1
vn 2.0345049E-05 -2.1896065E-05 1
vn 6.0654427E-05 -0.5406339 0.84125805
vn 4.1800828E-05 -0.97715116 0.21254562
vn 4.181874E-05 -0.9771313 0.21263672
vn -0 -0.9267053 0.37578872
vn -0 -0.868016 0.49653623
vn -0 -0.7175654 0.6964912
vn -0 -0.868016 0.49653623
vn -0 -0.7175654 0.6964912
vn -0 -0.9267053 0.37578872
vn -4.1818756E-05 -0.9771313 0.21263672
vn -4.180084E-05 -0.97715116 0.21254562
vn -6.0653583E-05 -0.5406212 0.84126616
vn -6.0654434E-05 -0.540634 0.841258
vn -2.0345049E-05 -2.1896065E-05 1
vn -2.034505E-05 -2.1896067E-05 1
vn -0 -1 -4.0195354E-07
vn -0 -1 -4.0195357E-07
vn -0 -1 -4.0195357E-07
vn -0 -1 -4.0195354E-07
vn 1.3087011E-06 1 5.238741E-07
vn -1.4904455E-07 1 6.635949E-07
vn -1.3087011E-06 1 5.2387406E-07
vn -1.4369664E-07 1 2.339721E-07
vn -0 1 2.1853685E-07
vn 1.4904455E-07 1 6.635949E-07
vn 1.4369664E-07 1 2.339721E-07
vn -0 1 2.1853685E-07
vn -1 0 -3.4379812E-07
vn -1 -1.9852234E-07 0
vn -1 -1.13496256E-07 -1.4105622E-07
vn -1 1.3616369E-07 0
vn -1 3.443642E-07 0
vn -1 2.527654E-07 0
vn -1 4.0683312E-07 0
vn -1 -2.262998E-07 0
vn -1 1.2678025E-07 0
vn -1 -3.649345E-07 0
vn -1 1.6002579E-07 0
vn -1 1.6002579E-07 0
vn 1 -3.649345E-07 0
vn 1 1.2678025E-07 0
vn 1 -2.262998E-07 0
vn 1 1.6002579E-07 0
vn 1 1.6002579E-07 0
vn -0 2.2879543E-07 -1
vn -0 2.2879543E-07 -1
vn -0 2.2879543E-07 -1
vn -0 2.2879543E-07 -1
vn -6.683786E-07 -2.060834E-06 1
vn 0.93974346 0 0.34188014
vn 0.66449916 -0.6644991 0.3418798
vn 0.6644992 0.66449857 0.3418806
vn -6.683786E-07 -2.060834E-06 1
vn 0.66449916 -0.6644991 0.3418798
vn 3.9987108E-07 -0.9397437 0.34187976
vn -0.6644991 -0.66449916 0.34187984
vn -6.683786E-07 -2.060834E-06 1
vn -0.6644991 -0.66449916 0.34187984
vn -0.9397436 3.3322578E-07 0.34188005
vn -0.6644992 0.6644987 0.34188044
vn -6.683786E-07 -2.060834E-06 1
vn -0.6644992 0.6644987 0.34188044
vn -0 0.9397434 0.34188083
vn 0.6644992 0.66449857 0.3418806
vn -6.2613634E-07 1.5116253E-06 -1
vn -9.033957E-07 9.2871574E-07 -1
vn -3.5629412E-07 1.0330716E-06 -1
vn -0 4.680654E-07 -1
vn -3.0232532E-06 -1.2522718E-06 -1
vn -0 4.680654E-07 -1
vn 3.0232547E-06 -1.2522737E-06 -1
vn 5.471017E-07 5.7242227E-07 -1
vn -3.5629412E-07 1.0330716E-06 -1
vn -1.5116269E-06 -6.26136E-07 -1
vn 1.1362439E-06 -1.6152486E-06 1
vn -0.66449916 -0.6644991 0.34187984
vn -0.9397436 0 0.34188017
vn -0.6644992 0.66449857 0.34188056
vn 1.1362439E-06 -1.6152486E-06 1
vn -4.887313E-07 -0.9397437 0.34187976
vn -0.66449916 -0.6644991 0.34187984
vn 0.66449916 -0.6644991 0.34187993
vn 1.1362439E-06 -1.6152486E-06 1
vn 0.9397436 4.2208595E-07 0.34188005
vn 0.66449916 -0.6644991 0.34187993
vn 0.6644992 0.6644987 0.34188044
vn 1.1362439E-06 -1.6152486E-06 1
vn -0 0.9397434 0.34188083
vn 0.6644992 0.6644987 0.34188044
vn -0.6644992 0.66449857 0.34188056
vn 6.2613634E-07 1.5116253E-06 -1
vn 3.5629412E-07 1.0330716E-06 -1
vn 9.0339563E-07 9.287156E-07 -1
vn -0 4.6806534E-07 -1
vn 3.0232536E-06 -1.252272E-06 -1
vn -0 4.6806534E-07 -1
vn -5.4710165E-07 5.7242227E-07 -1
vn -3.0232547E-06 -1.2522737E-06 -1
vn 3.5629412E-07 1.0330716E-06 -1
vn 1.5116264E-06 -6.261353E-07 -1
g logistic-vessel_0
f 3/3/3 2/2/2 1/1/1
f 4/4/4 3/3/3 1/1/1
f 2/2/2 3/3/3 5/5/5
f 3/3/3 6/6/6 5/5/5
f 1/1/1 7/7/7 4/4/4
f 7/7/7 8/8/8 4/4/4
f 11/11/11 10/10/10 9/9/9
f 12/12/12 11/11/11 9/9/9
f 15/15/15 14/14/14 13/13/13
f 16/16/16 15/15/15 13/13/13
f 19/19/19 18/18/18 17/17/17
f 20/20/20 19/19/19 17/17/17
f 23/23/23 22/22/22 21/21/21
f 24/24/24 23/23/23 21/21/21
f 27/27/27 26/26/26 25/25/25
f 28/28/28 27/27/27 25/25/25
f 31/31/31 30/30/30 29/29/29
f 32/32/32 31/31/31 29/29/29
f 35/35/35 34/34/34 33/33/33
f 36/36/36 35/35/35 33/33/33
f 39/39/39 38/38/38 37/37/37
f 40/40/40 39/39/39 37/37/37
f 43/43/43 42/42/42 41/41/41
f 44/44/44 43/43/43 41/41/41
f 47/47/47 46/46/46 45/45/45
f 48/48/48 47/47/47 45/45/45
f 49/49/49 45/45/45 46/46/46
f 50/50/50 49/49/49 46/46/46
f 51/51/51 47/47/47 48/48/48
f 52/52/52 51/51/51 48/48/48
f 55/55/55 54/54/54 53/53/53
f 56/56/56 55/55/55 53/53/53
f 53/53/53 57/57/57 56/56/56
f 57/57/57 58/58/58 56/56/56
f 55/55/55 59/59/59 54/54/54
f 59/59/59 60/60/60 54/54/54
f 63/63/63 62/62/62 61/61/61
f 64/64/64 63/63/63 61/61/61
f 63/63/63 64/64/64 65/65/65
f 66/66/66 63/63/63 65/65/65
f 66/66/66 65/65/65 67/67/67
f 68/68/68 66/66/66 67/67/67
f 71/71/71 70/70/70 69/69/69
f 72/72/72 71/71/71 69/69/69
f 75/75/75 74/74/74 73/73/73
f 76/76/76 75/75/75 73/73/73
f 79/79/79 78/78/78 77/77/77
f 80/80/80 79/79/79 77/77/77
f 81/81/81 80/80/80 77/77/77
f 82/82/82 81/81/81 77/77/77
f 83/83/83 81/81/81 82/82/82
f 84/84/84 83/83/83 82/82/82
f 87/87/87 86/86/86 85/85/85
f 88/88/88 87/87/87 85/85/85
f 91/91/91 90/90/90 89/89/89
f 92/92/92 91/91/91 89/89/89
f 95/95/95 94/94/94 93/93/93
f 96/96/96 95/95/95 93/93/93
f 99/99/99 98/98/98 97/97/97
f 100/100/100 99/99/99 97/97/97
f 103/103/103 102/102/102 101/101/101
f 104/104/104 103/103/103 101/101/101
f 107/107/107 106/106/106 105/105/105
f 108/108/108 107/107/107 105/105/105
f 111/111/111 110/110/110 109/109/109
f 112/112/112 111/111/111 109/109/109
f 115/115/115 114/114/114 113/113/113
f 116/116/116 115/115/115 113/113/113
f 119/119/119 118/118/118 117/117/117
f 120/120/120 119/119/119 117/117/117
f 123/123/123 122/122/122 121/121/121
f 124/124/124 123/123/123 121/121/121
f 127/127/127 126/126/126 125/125/125
f 128/128/128 127/127/127 125/125/125
f 131/131/131 130/130/130 129/129/129
f 132/132/132 129/129/129 130/130/130
f 133/133/133 130/130/130 131/131/131
f 134/134/134 130/130/130 133/133/133
f 137/137/137 136/136/136 135/135/135
f 138/138/138 137/137/137 135/135/135
f 141/141/141 140/140/140 139/139/139
f 139/139/139 142/142/142 141/141/141
f 141/141/141 143/143/143 140/140/140
f 144/144/144 143/143/143 141/141/141
f 147/147/147 146/146/146 145/145/145
f 148/148/148 147/147/147 145/145/145
f 146/146/146 147/147/147 149/149/149
f 147/147/147 150/150/150 149/149/149
f 153/153/153 152/152/152 151/151/151
f 154/154/154 153/153/153 151/151/151
f 157/157/157 156/156/156 155/155/155
f 158/158/158 157/157/157 155/155/155
f 159/159/159 158/158/158 155/155/155
f 160/160/160 159/159/159 155/155/155
f 163/163/163 162/162/162 161/161/161
f 164/164/164 163/163/163 161/161/161
f 164/164/164 161/161/161 165/165/165
f 166/166/166 164/164/164 165/165/165
f 169/169/169 168/168/168 167/167/167
f 170/170/170 169/169/169 167/167/167
f 171/171/171 169/169/169 170/170/170
f 172/172/172 171/171/171 170/170/170
f 175/175/175 174/174/174 173/173/173
f 176/176/176 175/175/175 173/173/173
f 175/175/175 176/176/176 177/177/177
f 178/178/178 175/175/175 177/177/177
f 181/181/181 180/180/180 179/179/179
f 182/182/182 181/181/181 179/179/179
f 185/185/185 184/184/184 183/183/183
f 186/186/186 185/185/185 183/183/183
f 189/189/189 188/188/188 187/187/187
f 190/190/190 189/189/189 187/187/187
f 193/193/193 192/192/192 191/191/191
f 194/194/194 193/193/193 191/191/191
f 197/197/197 196/196/196 195/195/195
f 198/198/198 197/197/197 195/195/195
f 201/201/201 200/200/200 199/199/199
f 202/202/202 201/201/201 199/199/199
f 205/205/205 204/204/204 203/203/203
f 206/206/206 205/205/205 203/203/203
f 209/209/209 208/208/208 207/207/207
f 210/210/210 209/209/209 207/207/207
f 210/210/210 207/207/207 211/211/211
f 212/212/212 210/210/210 211/211/211
f 215/215/215 214/214/214 213/213/213
f 216/216/216 215/215/215 213/213/213
f 213/213/213 214/214/214 217/217/217
f 214/214/214 218/218/218 217/217/217
f 218/218/218 219/219/219 217/217/217
f 219/219/219 220/220/220 217/217/217
f 219/219/219 221/221/221 220/220/220
f 221/221/221 222/222/222 220/220/220
f 222/222/222 221/221/221 223/223/223
f 224/224/224 222/222/222 223/223/223
f 227/227/227 226/226/226 225/225/225
f 228/228/228 227/227/227 225/225/225
f 225/225/225 226/226/226 229/229/229
f 230/230/230 225/225/225 229/229/229
f 233/233/233 232/232/232 231/231/231
f 234/234/234 233/233/233 231/231/231
f 237/237/237 236/236/236 235/235/235
f 236/236/236 238/238/238 235/235/235
f 238/238/238 239/239/239 235/235/235
f 239/239/239 240/240/240 235/235/235
f 239/239/239 241/241/241 240/240/240
f 242/242/242 241/241/241 239/239/239
f 245/245/245 244/244/244 243/243/243
f 246/246/246 245/245/245 243/243/243
f 247/247/247 244/244/244 245/245/245
f 248/248/248 247/247/247 245/245/245
f 247/247/247 248/248/248 249/249/249
f 248/248/248 250/250/250 249/249/249
f 249/249/249 250/250/250 251/251/251
f 252/252/252 249/249/249 251/251/251
f 255/255/255 254/254/254 253/253/253
f 256/256/256 255/255/255 253/253/253
f 254/254/254 255/255/255 257/257/257
f 258/258/258 254/254/254 257/257/257
f 261/261/261 260/260/260 259/259/259
f 262/262/262 261/261/261 259/259/259
f 263/263/263 262/262/262 259/259/259
f 264/264/264 263/263/263 259/259/259
f 265/265/265 263/263/263 264/264/264
f 265/265/265 266/266/266 263/263/263
f 269/269/269 268/268/268 267/267/267
f 269/269/269 270/270/270 268/268/268
f 268/268/268 270/270/270 271/271/271
f 270/270/270 272/272/272 271/271/271
f 273/273/273 271/271/271 272/272/272
f 276/276/276 275/275/275 274/274/274
f 277/277/277 276/276/276 274/274/274
f 278/278/278 277/277/277 274/274/274
f 279/279/279 278/278/278 274/274/274
f 278/278/278 279/279/279 280/280/280
f 279/279/279 281/281/281 280/280/280
f 280/280/280 281/281/281 282/282/282
f 281/281/281 283/283/283 282/282/282
f 283/283/283 284/284/284 282/282/282
f 283/283/283 285/285/285 284/284/284
f 285/285/285 283/283/283 286/286/286
f 287/287/287 285/285/285 286/286/286
f 286/286/286 288/288/288 287/287/287
f 288/288/288 289/289/289 287/287/287
f 289/289/289 288/288/288 290/290/290
f 288/288/288 291/291/291 290/290/290
f 294/294/294 293/293/293 292/292/292
f 295/295/295 294/294/294 292/292/292
f 298/298/298 297/297/297 296/296/296
f 299/299/299 297/297/297 298/298/298
f 300/300/300 299/299/299 298/298/298
f 296/296/296 297/297/297 301/301/301
f 301/301/301 302/302/302 296/296/296
f 302/302/302 303/303/303 296/296/296
f 306/306/306 305/305/305 304/304/304
f 307/307/307 305/305/305 306/306/306
f 307/307/307 306/306/306 308/308/308
f 309/309/309 307/307/307 308/308/308
f 308/308/308 310/310/310 309/309/309
f 313/313/313 312/312/312 311/311/311
f 311/311/311 312/312/312 314/314/314
f 312/312/312 315/315/315 314/314/314
f 318/318/318 317/317/317 316/316/316
f 319/319/319 317/317/317 318/318/318
f 320/320/320 319/319/319 318/318/318
f 323/323/323 322/322/322 321/321/321
f 324/324/324 323/323/323 321/321/321
f 327/327/327 326/326/326 325/325/325
f 326/326/326 328/328/328 325/325/325
f 331/331/331 330/330/330 329/329/329
f 332/332/332 331/331/331 329/329/329
f 335/335/335 334/334/334 333/333/333
f 333/333/333 336/336/336 335/335/335
f 339/339/339 338/338/338 337/337/337
f 340/340/340 339/339/339 337/337/337
f 343/343/343 342/342/342 341/341/341
f 343/343/343 344/344/344 342/342/342
f 344/344/344 345/345/345 342/342/342
f 348/348/348 347/347/347 346/346/346
f 349/349/349 348/348/348 346/346/346
f 349/349/349 350/350/350 348/348/348
f 353/353/353 352/352/352 351/351/351
f 354/354/354 353/353/353 351/351/351
f 357/357/357 356/356/356 355/355/355
f 356/356/356 358/358/358 355/355/355
f 361/361/361 360/360/360 359/359/359
f 362/362/362 359/359/359 360/360/360
f 365/365/365 364/364/364 363/363/363
f 364/364/364 366/366/366 363/363/363
f 369/369/369 368/368/368 367/367/367
f 370/370/370 368/368/368 369/369/369
f 371/371/371 370/370/370 369/369/369
f 374/374/374 373/373/373 372/372/372
f 373/373/373 375/375/375 372/372/372
f 376/376/376 375/375/375 373/373/373
