g Asteroid_SinglePlattform
v -9.294222 13.317905 -8.404911
v -9.294222 15.792899 -8.404911
v -9.551759 15.792899 -7.772297
v -9.551759 13.317905 -7.772297
v -9.639313 15.792897 -7.093338
v -9.639313 13.3179035 -7.093338
v -9.639315 13.317905 7.093343
v -9.639315 15.792899 7.093343
v 8.890469 13.317907 -8.948074
v 8.890469 15.792901 -8.948074
v 8.35601 15.792901 -9.364782
v 8.35601 13.317907 -9.364782
v 7.7334843 15.792901 -9.626625
v 7.7334843 13.317907 -9.626625
v 7.0653114 15.7929 -9.715759
v 7.0653114 13.317906 -9.715759
v -7.059099 15.792897 -9.715763
v -7.059099 13.3179035 -9.715763
v -7.727271 13.317906 -9.626629
v -7.727271 15.7929 -9.626629
v -8.349799 15.792897 -9.364786
v -8.349799 13.3179035 -9.364786
v -8.884256 13.317905 -8.948078
v -8.884256 15.792899 -8.948078
v -9.294222 15.792899 -8.404911
v -9.294222 13.317905 -8.404911
v -8.349801 13.317908 9.364789
v -8.349801 15.792902 9.364789
v -7.727273 15.792902 9.626631
v -7.727273 13.317908 9.626631
v -7.059101 15.7929 9.715767
v -7.059101 13.317906 9.715767
v 7.0653095 13.317908 9.715769
v 7.0653095 15.792902 9.715769
v 7.7334805 15.792902 9.626633
v 7.7334805 13.317908 9.626633
v 8.356007 13.317911 9.364792
v 8.356007 15.792905 9.364792
v 8.890465 15.792905 8.948087
v 8.890465 13.317911 8.948087
v 9.300432 15.792905 8.404918
v 9.300432 13.317911 8.404918
v -9.639315 13.317905 7.093343
v -9.639315 15.792899 7.093343
v -9.551761 15.792899 7.7722955
v -9.551761 13.317905 7.7722955
v -9.294224 13.317906 8.404914
v -9.294224 15.7929 8.404914
v -8.884258 13.317908 8.948084
v -8.884258 15.792902 8.948084
v -8.349801 15.792902 9.364789
v -8.349801 13.317908 9.364789
v 9.300432 13.317911 8.404918
v 9.300432 15.792905 8.404918
v 9.557968 15.792903 7.772299
v 9.557968 13.317909 7.772299
v 9.6020565 15.792898 7.430409
v 9.6020565 13.317904 7.430409
v 9.602058 15.792893 -7.4304104
v 9.602058 13.3179 -7.4304104
v 9.55797 13.317907 -7.772293
v 9.55797 15.792901 -7.772293
v 9.300434 15.7929 -8.404907
v 9.300434 13.317906 -8.404907
v 8.890469 13.317907 -8.948074
v 8.890469 15.792901 -8.948074
v -8.17392 9.201889 -8.245489
v -8.17392 13.317904 -8.245489
v -8.702488 13.3179035 -7.0331836
v -8.702488 9.201888 -7.0331836
v -8.70249 9.20189 7.033188
v -8.70249 13.317905 7.033188
v -8.173922 9.201892 8.245493
v -8.173922 13.317907 8.245493
v -6.9968915 13.3179035 -8.77899
v -8.17392 13.317904 -8.245489
v -8.17392 9.201889 -8.245489
v -6.996892 9.201888 -8.77899
v 7.0031037 9.201891 -8.778986
v 7.0031037 13.317906 -8.778986
v 8.180131 9.201891 -8.245485
v 8.180131 13.317907 -8.245485
v 7.003101 13.317908 8.7789955
v 8.180129 13.317911 8.245496
v 8.180129 9.201896 8.245496
v 7.003101 9.201893 8.7789955
v -6.996892 13.317906 8.778994
v -6.996892 9.201891 8.778994
v -8.173922 9.201892 8.245493
v -8.173922 13.317907 8.245493
v 8.665234 13.3179 -7.3702536
v 8.180131 13.317907 -8.245485
v 8.180131 9.201891 -8.245485
v 8.665234 9.201884 -7.370254
v 8.665232 9.201889 7.3702545
v 8.665232 13.317904 7.370254
v 8.180129 9.201896 8.245496
v 8.180129 13.317911 8.245496
v 9.557968 15.792903 7.772299
v 9.300432 15.792905 8.404918
v 9.6020565 15.792898 7.430409
v 8.890465 15.792905 8.948087
v 8.356007 15.792905 9.364792
v 7.0653095 15.792902 9.715769
v 7.7334805 15.792902 9.626633
v 7.0653114 15.7929 -9.715759
v 9.602058 15.792893 -7.4304104
v -9.639315 15.792899 7.093343
v -7.059101 15.7929 9.715767
v -9.551761 15.792899 7.7722955
v -9.294224 15.7929 8.404914
v -8.884258 15.792902 8.948084
v -8.349801 15.792902 9.364789
v -7.727273 15.792902 9.626631
v -9.639313 15.792897 -7.093338
v -7.059099 15.792897 -9.715763
v -9.551759 15.792899 -7.772297
v -9.294222 15.792899 -8.404911
v -8.884256 15.792899 -8.948078
v -8.349799 15.792897 -9.364786
v -7.727271 15.7929 -9.626629
v 8.35601 15.792901 -9.364782
v 7.7334843 15.792901 -9.626625
v 8.890469 15.792901 -8.948074
v 9.300434 15.7929 -8.404907
v 9.55797 15.792901 -7.772293
v -7.002886 10.126238 6.6787825
v -7.002887 6.444828 6.6787834
v -7.002885 6.444826 -6.678777
v -6.877118 6.44483 6.9672413
v -7.002884 10.126236 -6.678778
v -6.877117 10.12624 6.9672403
v -6.877116 6.444827 -6.9672365
v -6.8771152 10.126237 -6.9672375
v -6.62969 10.126239 7.0793896
v -6.629691 6.444829 7.0793905
v 6.6358986 6.444831 7.0793924
v 6.6358995 10.126241 7.0793915
v -6.6296897 10.126236 -7.0793858
v -6.6296906 6.444826 -7.079385
v 6.6359 6.444829 -7.079381
v 6.635901 10.126239 -7.079382
v 6.9662256 6.4448338 6.9296684
v 6.9662266 10.126244 6.9296675
v 6.9656277 10.126237 6.9307475
v 6.9656267 6.444827 6.9307485
v 6.9662313 6.444829 -6.9296546
v 6.9662323 10.126239 -6.9296556
v 6.9656296 10.126232 -6.930743
v 6.9656286 6.4448223 -6.9307423
vt 0.36704782 0.016136784
vt 0.34174266 0.01613678
vt 0.34174266 0.0215783
vt 0.36704782 0.0215783
vt 0.3417426 0.02797125
vt 0.36704782 0.027971253
vt 0.36704782 0.16692644
vt 0.3417426 0.16692643
vt 0.7577869 0.026891401
vt 0.7577869 0.0017963547
vt 0.75268865 0.0017963549
vt 0.75268865 0.026891401
vt 0.74658626 0.0017963551
vt 0.74658626 0.026891401
vt 0.73989534 0.0017963555
vt 0.73989534 0.026891401
vt 0.5970605 0.001796302
vt 0.5970605 0.026891407
vt 0.5902384 0.026891407
vt 0.5902384 0.0017963024
vt 0.58374965 0.0017963026
vt 0.58374965 0.026891408
vt 0.57803774 0.026891408
vt 0.57803774 0.001796303
vt 0.57349145 0.0017963031
vt 0.57349145 0.026891408
vt 0.7613731 0.17757186
vt 0.786734 0.17757186
vt 0.786734 0.17226157
vt 0.7613731 0.17226157
vt 0.7867339 0.1659851
vt 0.76137304 0.16598505
vt 0.76137304 0.02763383
vt 0.7867339 0.02763383
vt 0.7867339 0.020821042
vt 0.76137304 0.020821042
vt 0.76137304 0.013935
vt 0.7867339 0.013935003
vt 0.78673387 0.0074464157
vt 0.76137304 0.0074464157
vt 0.78673387 0.001796145
vt 0.76137304 0.0017961413
vt 0.41784462 0.6995447
vt 0.44333282 0.6995447
vt 0.44333282 0.6925878
vt 0.41784462 0.6925878
vt 0.41784462 0.68558574
vt 0.44333282 0.68558574
vt 0.41784462 0.67901635
vt 0.44333282 0.67901635
vt 0.44333282 0.6733262
vt 0.41784462 0.6733262
vt 0.5734981 0.032861724
vt 0.5734981 0.05776105
vt 0.5794258 0.057761066
vt 0.5794258 0.03286174
vt 0.5827658 0.057761066
vt 0.5827658 0.03286174
vt 0.7307299 0.057761066
vt 0.7307299 0.03286174
vt 0.73419714 0.03286174
vt 0.73419714 0.057761066
vt 0.74086684 0.057761066
vt 0.74086684 0.03286174
vt 0.74686587 0.03286174
vt 0.74686587 0.057761066
vt 0.43707782 0.16352713
vt 0.47921613 0.16352713
vt 0.47921613 0.15318972
vt 0.43707782 0.15318967
vt 0.43707785 0.015236916
vt 0.47921613 0.01523692
vt 0.43707788 0.0017950897
vt 0.4792161 0.0017950934
vt 0.52411675 0.01396513
vt 0.52411675 0.0017924904
vt 0.48280096 0.0017924886
vt 0.48280096 0.013965128
vt 0.48280096 0.15412134
vt 0.52411675 0.15412134
vt 0.48280096 0.16551536
vt 0.52411675 0.16551536
vt 0.52771014 0.14891599
vt 0.52771014 0.16205694
vt 0.56990594 0.16205694
vt 0.56990594 0.14891599
vt 0.52771014 0.011722111
vt 0.56990594 0.011722113
vt 0.56990594 0.0017938754
vt 0.52771014 0.0017938735
vt 0.19690326 0.15689942
vt 0.19690326 0.16633257
vt 0.23839936 0.16633257
vt 0.23839936 0.15689948
vt 0.23839936 0.009827286
vt 0.19690332 0.009827284
vt 0.23839936 0.0017952322
vt 0.19690332 0.0017952304
vt 0.19288957 0.021138469
vt 0.19032626 0.014841849
vt 0.19332825 0.024541415
vt 0.18624553 0.009434762
vt 0.18092489 0.005286411
vt 0.16807692 0.0017924686
vt 0.17472723 0.0026800195
vt 0.16807662 0.19521868
vt 0.19332825 0.17246976
vt 0.0017958356 0.027897293
vt 0.027479561 0.0017924624
vt 0.0026666294 0.02113846
vt 0.005229947 0.014841811
vt 0.0093112625 0.009434754
vt 0.014631291 0.0052864035
vt 0.020827804 0.0026800127
vt 0.0017958207 0.16911481
vt 0.027479561 0.19521868
vt 0.0026666294 0.1758727
vt 0.005229947 0.18217032
vt 0.0093112625 0.18757744
vt 0.014631276 0.19172472
vt 0.020827789 0.19433112
vt 0.18092486 0.19172473
vt 0.1747272 0.19433117
vt 0.1862455 0.18757746
vt 0.19032623 0.18217033
vt 0.19288957 0.17587271
vt 0.6857154 0.09012011
vt 0.6857154 0.09012011
vt 0.6842735 0.09460781
vt 0.686477 0.08999128
vt 0.6842735 0.09460781
vt 0.686477 0.08999128
vt 0.684615 0.093683615
vt 0.684615 0.093683615
vt 0.6872988 0.09006533
vt 0.6872988 0.09006533
vt 0.68382525 0.09650931
vt 0.68382525 0.09650931
vt 0.68481874 0.0931388
vt 0.68481874 0.0931388
vt 0.67626953 0.10010356
vt 0.67626953 0.10010356
vt 0.6814493 0.09569015
vt 0.6814493 0.09569015
vt 0.6814594 0.09569395
vt 0.6814594 0.09569395
vt 0.6741488 0.10022446
vt 0.6741488 0.10022446
vt 0.67415476 0.100224786
vt 0.67415476 0.100224786
vn -0.8696875 0 -0.49360287
vn -0.8696872 0 -0.49360314
vn -0.96713746 0 -0.25425407
vn -0.9670478 0 -0.25459483
vn -0.9999826 1.9943278E-05 -0.005905565
vn -0.99998283 0 -0.0058689304
vn -0.9999826 0 0.005906355
vn -0.99998283 0 0.0058694705
vn 0.71298015 0 -0.70118415
vn 0.7126293 0 -0.7015407
vn 0.5056964 0 -0.8627115
vn 0.50569665 0 -0.8627113
vn 0.2622788 0 -0.9649921
vn 0.26227883 0 -0.9649921
vn 0.0062799575 0 -0.99998033
vn 0.005832986 0 -0.9999831
vn -0.00607231 0 -0.99998164
vn -0.0060297474 0 -0.9999819
vn -0.26276043 0 -0.96486104
vn -0.26276693 0 -0.96485937
vn -0.50569654 0 -0.8627114
vn -0.5056965 0 -0.8627114
vn -0.71263015 0 -0.70154
vn -0.71263 0 -0.7015402
vn -0.8696872 0 -0.49360314
vn -0.8696875 0 -0.49360287
vn -0.50569475 0 0.86271244
vn -0.5056943 0 0.86271274
vn -0.26227927 0 0.964992
vn -0.26261854 0 0.9648998
vn -0.0060738553 0 0.99998164
vn -0.0060315914 0 0.9999819
vn 0.0060737585 0 0.99998164
vn 0.0060314396 0 0.9999819
vn 0.26276168 0 0.9648608
vn 0.26227894 0 0.9649921
vn 0.5061249 0 0.8624602
vn 0.5061307 0 0.86245686
vn 0.71262884 0 0.7015412
vn 0.7126285 0 0.70154154
vn 0.86976296 0 0.49346983
vn 0.8696881 0 0.49360165
vn -0.9999826 0 0.005906355
vn -0.99998283 0 0.0058694705
vn -0.9670477 0 0.25459513
vn -0.9670484 0 0.25459257
vn -0.869689 0 0.4936
vn -0.8696884 0 0.49360117
vn -0.71263003 0 0.70154005
vn -0.7129847 0 0.70117956
vn -0.5056943 0 0.86271274
vn -0.50569475 0 0.86271244
vn 0.8696881 0 0.49360165
vn 0.86976296 0 0.49346983
vn 0.9553888 0 0.29535115
vn 0.9554204 -3.0218955E-05 0.29524884
vn 0.99999475 2.0183586E-05 0.0032369825
vn 0.9999963 0 0.0027204084
vn 0.99999547 0 -0.0030164346
vn 0.9999958 1.9770612E-05 -0.0029151253
vn 0.955473 0 -0.29507825
vn 0.9552896 0 -0.295672
vn 0.86951387 0 -0.49390855
vn 0.86968935 0 -0.4935993
vn 0.71298015 0 -0.70118415
vn 0.7126293 0 -0.7015407
vn -0.71523213 0 -0.69888693
vn -0.715326 0 -0.69879097
vn -0.9993926 0 -0.034849767
vn -0.9994025 0 -0.03456102
vn -0.9994535 0 0.033056036
vn -0.9993363 0 0.036426395
vn -0.7151945 0 0.6989255
vn -0.71532583 0 0.698791
vn -0.0354563 0 -0.99937123
vn -0.715326 0 -0.69879097
vn -0.71523213 0 -0.69888693
vn -0.035116494 0 -0.9993832
vn 0.033505604 0 -0.99943846
vn 0.037152886 0 -0.99930966
vn 0.6474699 0 -0.76209104
vn 0.64654315 -2.0200356E-05 -0.76287735
vn 0.037151963 0 0.99930966
vn 0.64654434 0 0.7628764
vn 0.6474711 -2.9435836E-05 0.76208997
vn 0.03350492 0 0.9994386
vn -0.03545642 0 0.99937123
vn -0.035116315 0 0.9993832
vn -0.7151945 0 0.6989255
vn -0.71532583 0 0.698791
vn 0.99949026 0 -0.031923726
vn 0.64654315 -2.0200356E-05 -0.76287735
vn 0.6474699 0 -0.76209104
vn 0.99951816 0 -0.031038672
vn 0.9995895 0 0.028649926
vn 0.9994036 -8.457483E-05 0.034529418
vn 0.6474711 -2.9435836E-05 0.76208997
vn 0.64654434 0 0.7628764
vn -0 1 -1.9015824E-05
vn -1.5700101E-05 1 -1.1834355E-05
vn -0 1 0
vn -0 1 0
vn -0 1 0
vn -0 1 0
vn -0 1 1.6001826E-05
vn -0 1 0
vn -0 1 0
vn -0 1 0
vn -0 1 0
vn -0 1 0
vn -0 1 0
vn -0 1 0
vn -0 1 0
vn -0 1 0
vn -0 1 0
vn -0 1 0
vn -0 1 0
vn -0 1 0
vn -0 1 0
vn -0 1 0
vn -0 1 3.0909767E-05
vn -0 1 0
vn -0 1 0
vn -0 1 0
vn -0 1 1.1081073E-05
vn -0.0001268271 1 3.3361546E-05
vn -0.999944 0 0.010586397
vn -0.9999573 0 0.009236306
vn -0.9999721 0 -0.0074808463
vn -0.73077863 0 0.6826145
vn -0.99991965 0 -0.012675241
vn -0.73169345 0 0.6816338
vn -0.7307792 0 -0.68261397
vn -0.7316945 0 -0.6816326
vn -0.009821252 0 0.99995184
vn -0.008311019 0 0.99996555
vn 0.009170086 0 0.99995804
vn 0.014596149 0 0.9998934
vn -0.009820119 0 -0.99995184
vn -0.00831011 0 -0.99996555
vn 0.009171574 0 -0.9999579
vn 0.014596358 0 -0.9998934
vn 0.65087706 3.7940215E-05 0.7591831
vn 0.41110274 6.2731895E-05 0.911589
vn 0.98117894 -2.271682E-05 0.19310044
vn 0.99736077 5.2301348E-05 -0.07260398
vn 0.65100515 5.8813956E-05 -0.7590733
vn 0.41087705 0 -0.9116908
vn 0.9954135 -4.6187208E-05 -0.09566649
vn 1 -1.3699758E-05 0.00011636028
g Asteroid_SinglePlattform_0
f 3/3/3 2/2/2 1/1/1
f 4/4/4 3/3/3 1/1/1
f 5/5/5 3/3/3 4/4/4
f 6/6/6 5/5/5 4/4/4
f 6/6/6 7/7/7 5/5/5
f 7/7/7 8/8/8 5/5/5
f 11/11/11 10/10/10 9/9/9
f 12/12/12 11/11/11 9/9/9
f 13/13/13 11/11/11 12/12/12
f 14/14/14 13/13/13 12/12/12
f 15/15/15 13/13/13 14/14/14
f 16/16/16 15/15/15 14/14/14
f 17/17/17 15/15/15 16/16/16
f 18/18/18 17/17/17 16/16/16
f 18/18/18 19/19/19 17/17/17
f 19/19/19 20/20/20 17/17/17
f 21/21/21 20/20/20 19/19/19
f 22/22/22 21/21/21 19/19/19
f 22/22/22 23/23/23 21/21/21
f 23/23/23 24/24/24 21/21/21
f 25/25/25 24/24/24 23/23/23
f 26/26/26 25/25/25 23/23/23
f 29/29/29 28/28/28 27/27/27
f 30/30/30 29/29/29 27/27/27
f 31/31/31 29/29/29 30/30/30
f 32/32/32 31/31/31 30/30/30
f 32/32/32 33/33/33 31/31/31
f 33/33/33 34/34/34 31/31/31
f 35/35/35 34/34/34 33/33/33
f 36/36/36 35/35/35 33/33/33
f 36/36/36 37/37/37 35/35/35
f 37/37/37 38/38/38 35/35/35
f 39/39/39 38/38/38 37/37/37
f 40/40/40 39/39/39 37/37/37
f 41/41/41 39/39/39 40/40/40
f 42/42/42 41/41/41 40/40/40
f 45/45/45 44/44/44 43/43/43
f 46/46/46 45/45/45 43/43/43
f 46/46/46 47/47/47 45/45/45
f 47/47/47 48/48/48 45/45/45
f 47/47/47 49/49/49 48/48/48
f 49/49/49 50/50/50 48/48/48
f 51/51/51 50/50/50 49/49/49
f 52/52/52 51/51/51 49/49/49
f 55/55/55 54/54/54 53/53/53
f 56/56/56 55/55/55 53/53/53
f 57/57/57 55/55/55 56/56/56
f 58/58/58 57/57/57 56/56/56
f 59/59/59 57/57/57 58/58/58
f 60/60/60 59/59/59 58/58/58
f 60/60/60 61/61/61 59/59/59
f 61/61/61 62/62/62 59/59/59
f 63/63/63 62/62/62 61/61/61
f 64/64/64 63/63/63 61/61/61
f 64/64/64 65/65/65 63/63/63
f 65/65/65 66/66/66 63/63/63
f 69/69/69 68/68/68 67/67/67
f 70/70/70 69/69/69 67/67/67
f 70/70/70 71/71/71 69/69/69
f 71/71/71 72/72/72 69/69/69
f 71/71/71 73/73/73 72/72/72
f 73/73/73 74/74/74 72/72/72
f 77/77/77 76/76/76 75/75/75
f 78/78/78 77/77/77 75/75/75
f 79/79/79 78/78/78 75/75/75
f 80/80/80 79/79/79 75/75/75
f 81/81/81 79/79/79 80/80/80
f 82/82/82 81/81/81 80/80/80
f 85/85/85 84/84/84 83/83/83
f 86/86/86 85/85/85 83/83/83
f 86/86/86 83/83/83 87/87/87
f 88/88/88 86/86/86 87/87/87
f 89/89/89 88/88/88 87/87/87
f 90/90/90 89/89/89 87/87/87
f 93/93/93 92/92/92 91/91/91
f 94/94/94 93/93/93 91/91/91
f 95/95/95 94/94/94 91/91/91
f 96/96/96 95/95/95 91/91/91
f 97/97/97 95/95/95 96/96/96
f 98/98/98 97/97/97 96/96/96
f 101/101/101 100/100/100 99/99/99
f 100/100/100 101/101/101 102/102/102
f 102/102/102 101/101/101 103/103/103
f 101/101/101 104/104/104 103/103/103
f 105/105/105 103/103/103 104/104/104
f 106/106/106 104/104/104 101/101/101
f 107/107/107 106/106/106 101/101/101
f 104/104/104 106/106/106 108/108/108
f 104/104/104 108/108/108 109/109/109
f 110/110/110 109/109/109 108/108/108
f 111/111/111 109/109/109 110/110/110
f 112/112/112 109/109/109 111/111/111
f 113/113/113 109/109/109 112/112/112
f 114/114/114 109/109/109 113/113/113
f 108/108/108 106/106/106 115/115/115
f 116/116/116 115/115/115 106/106/106
f 115/115/115 116/116/116 117/117/117
f 116/116/116 118/118/118 117/117/117
f 118/118/118 116/116/116 119/119/119
f 119/119/119 116/116/116 120/120/120
f 121/121/121 120/120/120 116/116/116
f 123/123/123 106/106/106 122/122/122
f 107/107/107 122/122/122 106/106/106
f 122/122/122 107/107/107 124/124/124
f 124/124/124 107/107/107 125/125/125
f 126/126/126 125/125/125 107/107/107
f 129/129/129 128/128/128 127/127/127
f 128/128/128 130/130/130 127/127/127
f 131/131/131 129/129/129 127/127/127
f 130/130/130 132/132/132 127/127/127
f 133/133/133 129/129/129 131/131/131
f 134/134/134 133/133/133 131/131/131
f 132/132/132 130/130/130 135/135/135
f 130/130/130 136/136/136 135/135/135
f 136/136/136 137/137/137 135/135/135
f 137/137/137 138/138/138 135/135/135
f 133/133/133 134/134/134 139/139/139
f 140/140/140 133/133/133 139/139/139
f 141/141/141 140/140/140 139/139/139
f 142/142/142 141/141/141 139/139/139
f 137/137/137 143/143/143 138/138/138
f 143/143/143 144/144/144 138/138/138
f 144/144/144 143/143/143 145/145/145
f 143/143/143 146/146/146 145/145/145
f 147/147/147 141/141/141 142/142/142
f 148/148/148 147/147/147 142/142/142
f 145/145/145 146/146/146 149/149/149
f 147/147/147 148/148/148 149/149/149
f 146/146/146 150/150/150 149/149/149
f 150/150/150 147/147/147 149/149/149
