# Blender 3.6.12
# www.blender.org
mtllib beltforward.mtl
o Belt_Forward_Layer0_LOD0
v 0.500115 0.190048 -0.191115
v -0.500115 0.190048 -0.191115
v -0.500115 0.190048 -0.250057
v 0.500115 0.190048 -0.250057
v 0.500115 0.190048 0.250057
v -0.500115 0.190048 0.250057
v -0.500115 0.190048 0.191115
v 0.500115 0.190048 0.191115
v -0.500115 0.200000 0.191115
v 0.500115 0.200000 0.191115
v 0.500115 0.190048 0.191115
v -0.500115 0.190048 0.191115
v 0.500115 0.200000 -0.191115
v -0.500115 0.200000 -0.191115
v -0.500115 0.190048 -0.191115
v 0.500115 0.190048 -0.191115
v 0.500061 0.129939 0.267009
v 0.500061 -0.000000 0.267009
v -0.499975 0.000000 0.267009
v -0.499975 0.129940 0.267009
v 0.500053 -0.000000 0.216046
v -0.499975 0.129940 0.216046
v -0.499975 0.000000 0.216046
v 0.500053 0.129939 0.216045
v 0.500047 0.249990 0.215849
v -0.500001 0.249990 0.215849
v 0.500047 0.257061 0.218766
v -0.500002 0.257061 0.218766
v 0.500048 0.259990 -0.225832
v -0.500002 0.259990 -0.225833
v -0.499991 0.259990 -0.273796
v 0.500059 0.259990 -0.273796
v 0.500047 0.257061 -0.218766
v -0.500002 0.259990 -0.225833
v -0.500003 0.257061 -0.218766
v 0.500061 0.129939 0.267009
v -0.499975 0.129940 0.267009
v -0.499975 0.129940 0.284009
v 0.500061 0.129939 0.284009
v 0.500061 0.129939 -0.267009
v 0.500061 0.129939 -0.284009
v -0.499975 0.129940 -0.284009
v -0.500004 0.129940 -0.267009
v 0.500061 0.129939 -0.267009
v -0.500004 0.129940 -0.267009
v -0.500004 0.000000 -0.267009
v 0.500061 -0.000000 -0.267009
v 0.500047 0.257061 0.218766
v 0.500048 0.259990 0.225832
v -0.500002 0.259990 0.225833
v -0.500002 0.257061 0.218766
v -0.499988 0.249990 0.283812
v -0.499990 0.257061 0.280872
v 0.500060 0.257061 0.280872
v 0.500061 0.249990 0.283812
v -0.499975 0.129940 0.284009
v 0.500061 0.129939 0.284009
v -0.499990 0.257061 0.280872
v -0.499991 0.259990 0.273796
v 0.500059 0.259990 0.273796
v 0.500060 0.257061 0.280872
v -0.499990 0.257061 -0.280872
v 0.500060 0.257061 -0.280872
v 0.500059 0.259990 -0.273796
v -0.499991 0.259990 -0.273796
v 0.500048 0.259990 0.225832
v 0.500059 0.259990 0.273796
v -0.499991 0.259990 0.273796
v -0.500002 0.259990 0.225833
v -0.500004 0.129940 -0.216046
v 0.500053 -0.000000 -0.216045
v -0.500004 0.000000 -0.216046
v 0.500053 0.129939 -0.216045
v 0.500047 0.249990 -0.215849
v -0.500004 0.249990 -0.215849
v -0.500003 0.257061 -0.218766
v 0.500047 0.257061 -0.218766
v 0.500061 0.249990 -0.283812
v -0.499975 0.129940 -0.284009
v 0.500061 0.129939 -0.284009
v -0.499988 0.249990 -0.283812
v 0.500060 0.257061 -0.280872
v -0.499990 0.257061 -0.280872
vn -0.0000 1.0000 -0.0000
vn -0.0000 -0.0000 1.0000
vn -0.0000 -0.0000 -1.0000
vn -0.0000 -0.0007 -1.0000
vn -0.0000 -0.0010 -1.0000
vn -0.0000 -0.0009 -1.0000
vn -0.0000 0.7065 -0.7077
vn -0.0000 -0.0008 -1.0000
vn 0.0001 -0.0008 -1.0000
vn 0.0001 1.0000 -0.0000
vn -0.0000 0.7065 0.7077
vn -0.0000 -1.0000 -0.0000
vn -0.0001 0.7065 -0.7077
vn -0.0000 0.7066 -0.7077
vn -0.0000 0.7077 0.7065
vn -0.0001 0.7077 0.7065
vn -0.0000 0.0016 1.0000
vn -0.0001 1.0000 -0.0000
vn -0.0000 0.7077 -0.7065
vn -0.0000 -0.0007 1.0000
vn -0.0000 -0.0009 1.0000
vn -0.0000 -0.0010 1.0000
vn -0.0000 -0.0008 1.0000
vn 0.0001 0.7065 0.7077
vn 0.0001 -0.0009 1.0000
vn -0.0000 0.0016 -1.0000
vn -0.0001 0.7077 -0.7066
vn -0.0000 0.7077 -0.7066
vn 0.0001 0.0016 -1.0000
vt 1.006029 0.000090
vt 1.005931 0.000090
vt 1.005931 -0.002129
vt 1.006029 -0.002129
vt 1.005929 0.000090
vt 1.005831 0.000090
vt 1.005831 -0.002129
vt 1.005929 -0.002129
vt 1.006274 -0.002129
vt 1.006290 -0.002129
vt 1.006290 0.000090
vt 1.006274 0.000090
vt 1.006272 0.000090
vt 1.006255 0.000090
vt 1.006255 -0.002129
vt 1.006272 -0.002129
vt 1.005182 0.000089
vt 1.005182 -0.002129
vt 1.005399 -0.002129
vt 1.005399 0.000089
vt 1.004962 0.000089
vt 1.004745 0.000089
vt 1.004962 -0.002129
vt 1.004745 -0.002129
vt 1.004545 -0.002129
vt 1.004545 0.000089
vt 1.004532 -0.002129
vt 1.004532 0.000089
vt 1.006031 -0.002129
vt 1.006111 -0.002129
vt 1.006111 0.000089
vt 1.006031 0.000089
vt 1.006319 -0.002129
vt 1.006319 0.000089
vt 1.006307 -0.002129
vt 1.006307 0.000089
vt 1.006253 0.000089
vt 1.006225 0.000089
vt 1.006225 -0.002129
vt 1.006253 -0.002129
vt 1.006195 0.000089
vt 1.006195 -0.002129
vt 1.006223 -0.002129
vt 1.006223 0.000089
vt 1.004964 -0.002129
vt 1.005180 -0.002129
vt 1.005180 0.000089
vt 1.004964 0.000089
vt 1.006321 0.000089
vt 1.006321 -0.002129
vt 1.006334 -0.002129
vt 1.006334 0.000089
vt 1.005616 0.000089
vt 1.005616 -0.002129
vt 1.005628 -0.002129
vt 1.005628 0.000089
vt 1.005829 -0.002129
vt 1.005829 0.000089
vt 1.006348 -0.002129
vt 1.006348 0.000089
vt 1.006336 0.000089
vt 1.006336 -0.002129
vt 1.006305 0.000089
vt 1.006292 0.000089
vt 1.006292 -0.002129
vt 1.006305 -0.002129
vt 1.006193 -0.002129
vt 1.006193 0.000089
vt 1.006113 0.000089
vt 1.006113 -0.002129
vt 1.004100 0.000089
vt 1.004100 -0.002129
vt 1.004317 0.000089
vt 1.004317 -0.002129
vt 1.004517 -0.002129
vt 1.004517 0.000089
vt 1.004530 0.000089
vt 1.004530 -0.002129
vt 1.005614 -0.002129
vt 1.005614 0.000089
vt 1.005414 -0.002129
vt 1.005414 0.000089
vt 1.005401 -0.002129
vt 1.005401 0.000089
s 0
usemtl 
f 3/1/1 2/2/1 1/3/1
f 4/4/1 3/1/1 1/3/1
f 7/5/1 6/6/1 5/7/1
f 8/8/1 7/5/1 5/7/1
f 11/9/2 10/10/2 9/11/2
f 12/12/2 11/9/2 9/11/2
f 15/13/3 14/14/3 13/15/3
f 16/16/3 15/13/3 13/15/3
f 19/17/2 18/18/2 17/19/2
f 20/20/2 19/17/2 17/19/2
f 23/21/4 22/22/4 21/23/4
f 21/23/4 22/22/4 24/24/4
f 24/24/5 22/22/5 25/25/6
f 26/26/6 25/25/6 22/22/5
f 27/27/7 25/25/8 26/26/8
f 28/28/7 27/27/7 26/26/9
f 31/29/1 30/30/1 29/31/1
f 32/32/1 31/29/1 29/31/1
f 29/33/1 34/34/10 33/35/11
f 34/34/10 35/36/11 33/35/11
f 38/37/12 37/38/12 36/39/12
f 39/40/12 38/37/12 36/39/12
f 42/41/12 41/42/12 40/43/12
f 43/44/12 42/41/12 40/43/12
f 46/45/3 45/46/3 44/47/3
f 47/48/3 46/45/3 44/47/3
f 50/49/1 49/50/10 48/51/7
f 51/52/13 50/49/1 48/51/14
f 54/53/15 53/54/16 52/55/17
f 55/56/17 54/53/15 52/55/17
f 55/56/17 52/55/17 56/57/17
f 57/58/17 55/56/17 56/57/17
f 60/59/1 59/60/18 58/61/15
f 61/62/16 60/59/1 58/61/15
f 64/63/18 63/64/19 62/65/19
f 65/66/1 64/63/18 62/65/19
f 68/67/1 67/68/1 66/69/1
f 69/70/1 68/67/1 66/69/1
f 72/71/20 71/72/20 70/73/20
f 73/74/20 70/73/20 71/72/20
f 74/75/21 70/73/22 73/74/22
f 75/76/23 70/73/21 74/75/23
f 76/77/24 75/76/23 74/75/21
f 77/78/11 76/77/11 74/75/25
f 80/79/26 79/80/26 78/81/26
f 79/80/26 81/82/26 78/81/26
f 82/83/27 78/81/26 81/82/26
f 83/84/19 82/83/28 81/82/29
o Belt_Forward_Layer0_LOD0.001
v -0.500115 0.200000 -0.191115
v 0.500115 0.200000 -0.191115
v 0.500115 0.200000 0.191115
v -0.500115 0.200000 0.191115
vn -0.0000 1.0000 -0.0000
vt -0.000302 1.000073
vt -0.000277 0.000804
vt 0.999905 0.001113
vt 0.999283 1.000382
s 0
usemtl Material.001
f 86/85/30 85/86/30 84/87/30
f 87/88/30 86/85/30 84/87/30
